<svg width="23" height="22" viewBox="0 0 23 22" fill="none" xmlns="http://www.w3.org/2000/svg">
<g id="Group 33861">
<path id="Vector 7" d="M1.46191 3.80062L5.51672 11.9835L3.1729 12.2296C0.566575 12.9023 1.68067 15.0393 2.56351 16.0237L10.7669 21.4174L21.8766 17.1106L21.4078 12.2296C21.4078 9.96548 19.8453 7.95017 19.064 7.22554L17.3061 6.87689L15.8764 7.22554L14.8686 5.58486L13.0638 4.33384L10.7669 5.13367L9.85279 4.33384L7.13396 4.68248L6.19643 2.83672L4.64951 1.46265H3.1729L1.74317 1.79078L1.46191 3.80062Z" fill="white" stroke="black"/>
<g id="Group">
<path id="Vector" d="M20.8844 9.53176L20.0394 7.84984C19.9902 7.75193 19.9362 7.65593 19.8775 7.56212C19.5352 7.01441 18.9734 6.60206 18.2957 6.40102C17.6213 6.20054 16.8858 6.2274 16.2329 6.47636L15.8307 6.62938L15.0743 5.12374C14.8214 4.62037 14.3588 4.23422 13.7719 4.03643C13.1877 3.83957 12.5523 3.85392 11.9822 4.07672L10.8378 4.51052C10.6386 4.24706 10.3929 4.04831 10.1039 3.91746C9.5362 3.6604 8.84934 3.68366 8.06217 3.98648L7.21228 4.3134L6.17776 2.25428C5.78152 1.46561 5.04742 0.924636 4.16373 0.770064C3.33421 0.625031 2.4902 0.829885 1.90555 1.31811C1.02449 2.05382 0.771343 3.15845 1.26014 4.13139L5.1167 11.8558C3.95801 11.609 2.61082 11.8046 1.82891 12.4157C1.79717 12.4331 1.76734 12.4541 1.74013 12.4786C1.22332 12.9443 0.968457 13.5069 1.00312 14.1054C1.04667 14.8585 1.54173 15.6038 2.43464 16.2604C2.43857 16.2633 2.44253 16.2662 2.44655 16.2689L10.2392 21.6355C10.3073 21.6824 10.3887 21.7122 10.4747 21.7218C10.5606 21.7313 10.648 21.7202 10.7273 21.6897L21.8909 17.3955C21.9713 17.3646 22.0403 17.315 22.0905 17.252C22.1408 17.1891 22.1702 17.1153 22.1757 17.0386L22.2365 16.1875C22.3985 13.9164 21.9311 11.6149 20.8844 9.53176ZM21.2821 16.1354L21.2395 16.7322L10.6051 20.8228L3.04415 15.6158C2.36336 15.1136 1.98778 14.5768 1.95804 14.0631C1.93858 13.7265 2.07054 13.4141 2.35045 13.1333C2.36867 13.1211 2.38607 13.1076 2.40257 13.0927C3.10057 12.4636 4.83936 12.4185 5.7427 13.0014L7.68252 14.6316C7.77146 14.7066 7.89017 14.7484 8.01365 14.7483C8.07807 14.7484 8.14184 14.737 8.20111 14.7149C8.26038 14.6928 8.31392 14.6604 8.35849 14.6197C8.5414 14.4531 8.53528 14.1883 8.34486 14.0283L6.44955 12.4354L2.13594 3.79556C1.74099 3.00953 2.09903 2.3131 2.56569 1.92335C2.91957 1.62776 3.45994 1.50025 3.97632 1.59048C4.55848 1.6923 5.0294 2.04763 5.30243 2.59099L8.56488 9.08461C8.59014 9.1349 8.62648 9.18035 8.67182 9.21835C8.71716 9.25635 8.77061 9.28617 8.82911 9.3061C8.88762 9.32602 8.95004 9.33567 9.01281 9.33449C9.07558 9.33331 9.13747 9.32132 9.19494 9.29921C9.43666 9.20622 9.54648 8.95941 9.4402 8.7479L7.59704 5.07927L8.44693 4.75235C8.95643 4.55633 9.36605 4.52541 9.66437 4.66049C9.87612 4.75637 10.0527 4.94282 10.1893 5.21456L10.1893 5.21464L12.1133 9.04424C12.1507 9.11863 12.212 9.1819 12.2897 9.22631C12.3675 9.27071 12.4583 9.29435 12.5512 9.29432C12.6174 9.29431 12.6828 9.28223 12.7434 9.25885C12.9851 9.16585 13.0949 8.91904 12.9886 8.70753L11.2581 5.26296L12.3648 4.84342L12.3703 4.84129C12.7069 4.70927 13.0825 4.70069 13.4282 4.81715C13.7756 4.93424 14.0493 5.16269 14.1989 5.46041L16.4855 10.0116C16.5228 10.086 16.5841 10.1492 16.6619 10.1936C16.7396 10.238 16.8305 10.2617 16.9234 10.2617C16.9895 10.2616 17.055 10.2496 17.1156 10.2262C17.3573 10.1332 17.4671 9.88638 17.3608 9.67487L16.2155 7.39533L16.6142 7.24361C17.5236 6.89761 18.5658 7.20713 19.0387 7.96371C19.0841 8.03637 19.126 8.1107 19.164 8.18651L20.0091 9.86847C20.9945 11.8299 21.4347 13.997 21.2821 16.1354Z" fill="black"/>
<path id="Vector_2" d="M19.0241 16.0678L18.4698 16.2805C18.228 16.3733 18.1179 16.62 18.2239 16.8316C18.2612 16.9061 18.3226 16.9694 18.4004 17.0139C18.4782 17.0584 18.5691 17.082 18.662 17.082C18.728 17.082 18.7934 17.07 18.8538 17.0467L19.4082 16.834C19.65 16.7412 19.76 16.4944 19.654 16.2829C19.5478 16.0712 19.2658 15.975 19.0241 16.0678ZM16.7882 16.9369L10.8682 19.2088C10.6264 19.3016 10.5164 19.5483 10.6224 19.7599C10.6597 19.8344 10.721 19.8977 10.7988 19.9422C10.8766 19.9866 10.9675 20.0103 11.0605 20.0103C11.1265 20.0103 11.1918 19.9982 11.2523 19.9749L17.1722 17.703C17.414 17.6102 17.5241 17.3635 17.418 17.1519C17.3119 16.9403 17.0298 16.8441 16.7882 16.9369Z" fill="black"/>
</g>
</g>
</svg>
