<svg width="155" height="25" viewBox="0 0 155 25" fill="none" xmlns="http://www.w3.org/2000/svg">
<g id="Group 1707478273">
<g id="Group 1707478243">
<path id="f_1_" d="M8.15905 24.2711V13.3264H11.8633L12.4191 9.05983H8.15905V6.33624C8.15905 5.10135 8.50355 4.25979 10.2919 4.25979L12.569 4.25886V0.442679C12.1752 0.391947 10.8234 0.275635 9.25012 0.275635C5.96475 0.275635 3.71552 2.26361 3.71552 5.91368V9.05983H0V13.3264H3.71552V24.2711H8.15905Z" fill="#DCA827"/>
<g id="Group">
<path id="Vector" d="M103.919 7.33172C103.862 6.05651 103.656 5.17981 103.361 4.42013C103.056 3.61376 102.587 2.89182 101.973 2.29166C101.373 1.68216 100.646 1.20856 99.849 0.908573C99.085 0.613165 98.2128 0.406947 96.9376 0.350723C95.6529 0.289737 95.245 0.275635 91.9866 0.275635C88.7281 0.275635 88.3203 0.289737 87.0403 0.345961C85.7651 0.402186 84.8884 0.608587 84.1289 0.903811C83.3223 1.20856 82.6004 1.6774 82.0002 2.29166C81.3907 2.89182 80.9173 3.61852 80.6171 4.41556C80.3217 5.17981 80.1155 6.05174 80.0593 7.32696C79.9983 8.6117 79.9842 9.01956 79.9842 12.278C79.9842 15.5365 79.9983 15.9443 80.0545 17.2243C80.1107 18.4995 80.3171 19.3762 80.6126 20.1359C80.9173 20.9423 81.3907 21.6642 82.0002 22.2644C82.6004 22.8739 83.3271 23.3475 84.1241 23.6475C84.8884 23.9429 85.7603 24.1491 87.0357 24.2053C88.3155 24.2617 88.7235 24.2756 91.982 24.2756C95.2405 24.2756 95.6483 24.2617 96.9283 24.2053C98.2035 24.1491 99.0802 23.9429 99.8397 23.6475C101.453 23.0239 102.728 21.7486 103.351 20.1359C103.647 19.3716 103.853 18.4995 103.909 17.2243C103.966 15.9443 103.98 15.5365 103.98 12.278C103.98 9.01956 103.975 8.6117 103.919 7.33172ZM101.757 17.1305C101.706 18.3026 101.509 18.9356 101.345 19.3575C100.941 20.4031 100.112 21.2329 99.0661 21.6362C98.6441 21.8003 98.0066 21.9972 96.8391 22.0486C95.5732 22.105 95.1936 22.119 91.9913 22.119C88.7891 22.119 88.4047 22.105 87.1434 22.0486C85.9713 21.9972 85.3383 21.8003 84.9164 21.6362C84.3961 21.4439 83.9225 21.1391 83.5381 20.7406C83.1395 20.3515 82.8348 19.8826 82.6425 19.3623C82.4784 18.9403 82.2815 18.3026 82.2301 17.1353C82.1737 15.8694 82.1597 15.4896 82.1597 12.2874C82.1597 9.08512 82.1737 8.70071 82.2301 7.43959C82.2815 6.26748 82.4784 5.63455 82.6425 5.21259C82.8348 4.6921 83.1395 4.21868 83.5428 3.83408C83.9318 3.43556 84.4007 3.13082 84.9211 2.9387C85.3431 2.7746 85.9808 2.57773 87.1481 2.52608C88.414 2.46986 88.7939 2.45575 91.9959 2.45575C95.2029 2.45575 95.5826 2.46986 96.8439 2.52608C98.016 2.57773 98.6489 2.7746 99.0709 2.9387C99.5912 3.13082 100.065 3.43556 100.449 3.83408C100.848 4.22326 101.152 4.6921 101.345 5.21259C101.509 5.63455 101.706 6.27206 101.757 7.43959C101.814 8.70547 101.828 9.08512 101.828 12.2874C101.828 15.4896 101.814 15.8647 101.757 17.1305Z" fill="#DCA827"/>
<path id="Vector_2" d="M91.9863 6.11269C88.5826 6.11269 85.821 8.8741 85.821 12.278C85.821 15.6818 88.5826 18.4433 91.9863 18.4433C95.3902 18.4433 98.1516 15.6818 98.1516 12.278C98.1516 8.8741 95.3902 6.11269 91.9863 6.11269ZM91.9863 16.2772C89.7782 16.2772 87.9871 14.4863 87.9871 12.278C87.9871 10.0696 89.7782 8.2787 91.9863 8.2787C94.1947 8.2787 95.9856 10.0696 95.9856 12.278C95.9856 14.4863 94.1947 16.2772 91.9863 16.2772Z" fill="#DCA827"/>
<path id="Vector_3" d="M99.8347 5.86814C99.8347 6.66298 99.1902 7.30746 98.3952 7.30746C97.6003 7.30746 96.9559 6.66298 96.9559 5.86814C96.9559 5.07313 97.6003 4.42883 98.3952 4.42883C99.1902 4.42883 99.8347 5.07313 99.8347 5.86814Z" fill="#DCA827"/>
</g>
<path id="Vector_4" d="M154.255 2.98105C153.193 3.43987 152.061 3.74398 150.881 3.89165C152.095 3.17794 153.022 2.05639 153.457 0.704564C152.325 1.36905 151.076 1.83841 149.744 2.10034C148.669 0.973524 147.137 0.275635 145.466 0.275635C142.224 0.275635 139.614 2.86679 139.614 6.04333C139.614 6.50038 139.653 6.93986 139.749 7.35824C134.881 7.12444 130.572 4.82685 127.678 1.32686C127.173 2.18999 126.877 3.17794 126.877 4.24147C126.877 6.23845 127.921 8.00866 129.478 9.03352C128.537 9.01594 127.614 8.74698 126.832 8.32333V8.38661C126.832 11.1887 128.862 13.5162 131.524 14.0523C131.047 14.1807 130.528 14.2422 129.989 14.2422C129.614 14.2422 129.235 14.2211 128.88 14.1438C129.639 16.4273 131.792 18.1061 134.352 18.1606C132.36 19.6952 129.83 20.6199 127.091 20.6199C126.611 20.6199 126.15 20.5988 125.689 20.5408C128.284 22.1879 131.358 23.1284 134.673 23.1284C145.45 23.1284 151.342 14.3389 151.342 6.72012C151.342 6.46522 151.333 6.21912 151.32 5.97477C152.483 5.16261 153.459 4.1483 154.255 2.98105Z" fill="#DCA827"/>
</g>
<path id="Vector_5" d="M54.5999 3.27563H37.3999H37.4001C36.233 3.27563 35.1139 3.73908 34.2888 4.56442C33.4634 5.38949 33 6.50863 33 7.67578V16.8758V16.8755C33 18.0426 33.4634 19.1618 34.2888 19.9868C35.1139 20.8122 36.233 21.2756 37.4001 21.2756H54.6001H54.5999C55.767 21.2756 56.8861 20.8122 57.7112 19.9868C58.5366 19.1618 59 18.0426 59 16.8755V7.6755V7.67578C59 6.50863 58.5365 5.38949 57.7112 4.56442C56.8861 3.73906 55.767 3.27563 54.5999 3.27563ZM51.0921 12.4513L43.2921 16.4513C43.2301 16.4832 43.1562 16.4809 43.0968 16.4449C43.0371 16.4092 43.0005 16.3448 42.9999 16.2753V8.27529C43.0005 8.20581 43.037 8.14136 43.0968 8.10564C43.1562 8.06965 43.2301 8.06742 43.2921 8.09923L51.0921 12.0992C51.1588 12.1335 51.2009 12.2022 51.2009 12.2772C51.2009 12.3523 51.1588 12.4209 51.0921 12.4553V12.4513Z" fill="#DCA827"/>
</g>
</svg>
