<svg width="52" height="39" viewBox="0 0 52 39" fill="none" xmlns="http://www.w3.org/2000/svg">
<g id="Group">
<path id="Vector" d="M50.8756 13.5049C50.7062 13.5048 50.5411 13.4552 50.4037 13.3632C50.2663 13.2711 50.1636 13.1413 50.1101 12.992L49.3025 10.7425C49.2648 10.6482 49.2479 10.5478 49.2528 10.4473C49.2577 10.3468 49.2843 10.2483 49.3311 10.1576C49.3779 10.0668 49.4438 9.98577 49.525 9.91919C49.6062 9.85262 49.701 9.80189 49.8038 9.77004C49.9065 9.73818 50.0151 9.72585 50.1231 9.73378C50.2311 9.7417 50.3363 9.76972 50.4324 9.81616C50.5284 9.8626 50.6135 9.92653 50.6824 10.0041C50.7514 10.0817 50.8028 10.1714 50.8336 10.2678L51.6412 12.5174C51.6817 12.6301 51.6929 12.7501 51.6737 12.8676C51.6544 12.9851 51.6054 13.0967 51.5307 13.1932C51.4559 13.2896 51.3575 13.3682 51.2436 13.4224C51.1297 13.4766 51.0036 13.5049 50.8756 13.5049Z" fill="#DCA827"/>
<path id="Vector_2" d="M50.0681 11.2555H48.453C48.2389 11.2555 48.0335 11.1764 47.882 11.0358C47.7306 10.8952 47.6455 10.7045 47.6455 10.5056C47.6455 10.3067 47.7306 10.116 47.882 9.97537C48.0335 9.83474 48.2389 9.75574 48.453 9.75574H50.0681C50.2823 9.75574 50.4877 9.83474 50.6391 9.97537C50.7906 10.116 50.8757 10.3067 50.8757 10.5056C50.8757 10.7045 50.7906 10.8952 50.6391 11.0358C50.4877 11.1764 50.2823 11.2555 50.0681 11.2555Z" fill="#DCA827"/>
<path id="Vector_3" d="M46.8364 14.2548C46.6988 14.2548 46.5635 14.222 46.4434 14.1598C46.3232 14.0975 46.2222 14.0078 46.1498 13.8991C46.0775 13.7904 46.0363 13.6663 46.0301 13.5387C46.0239 13.4111 46.053 13.2841 46.1145 13.1698L47.7295 10.1704C47.8253 9.99236 47.9932 9.85697 48.1965 9.79397C48.3997 9.73097 48.6216 9.74552 48.8133 9.83442C49.0049 9.92332 49.1507 10.0793 49.2186 10.268C49.2864 10.4567 49.2708 10.6627 49.175 10.8407L47.56 13.8402C47.4928 13.9649 47.3895 14.0698 47.2617 14.1431C47.1339 14.2163 46.9866 14.255 46.8364 14.2548Z" fill="#DCA827"/>
<path id="Vector_4" d="M46.8376 14.2548H43.6074C43.3933 14.2548 43.1879 14.1758 43.0364 14.0352C42.885 13.8946 42.7999 13.7039 42.7999 13.505C42.7999 13.3061 42.885 13.1154 43.0364 12.9748C43.1879 12.8341 43.3933 12.7551 43.6074 12.7551H46.8376C47.0518 12.7551 47.2572 12.8341 47.4086 12.9748C47.5601 13.1154 47.6451 13.3061 47.6451 13.505C47.6451 13.7039 47.5601 13.8946 47.4086 14.0352C47.2572 14.1758 47.0518 14.2548 46.8376 14.2548Z" fill="#DCA827"/>
<path id="Vector_5" d="M43.6074 16.5044C43.3933 16.5044 43.1879 16.4254 43.0364 16.2848C42.885 16.1442 42.7999 15.9534 42.7999 15.7546V13.505C42.7999 13.3061 42.885 13.1154 43.0364 12.9748C43.1879 12.8341 43.3933 12.7551 43.6074 12.7551C43.8216 12.7551 44.027 12.8341 44.1785 12.9748C44.3299 13.1154 44.415 13.3061 44.415 13.505V15.7546C44.415 15.9534 44.3299 16.1442 44.1785 16.2848C44.027 16.4254 43.8216 16.5044 43.6074 16.5044Z" fill="#DCA827"/>
<path id="Vector_6" d="M43.6071 16.5044H41.1845C40.9703 16.5044 40.7649 16.4254 40.6135 16.2847C40.462 16.1441 40.377 15.9534 40.377 15.7545C40.377 15.5556 40.462 15.3649 40.6135 15.2243C40.7649 15.0836 40.9703 15.0046 41.1845 15.0046H43.6071C43.8213 15.0046 44.0267 15.0836 44.1781 15.2243C44.3296 15.3649 44.4146 15.5556 44.4146 15.7545C44.4146 15.9534 44.3296 16.1441 44.1781 16.2847C44.0267 16.4254 43.8213 16.5044 43.6071 16.5044Z" fill="#DCA827"/>
<path id="Vector_7" d="M41.1845 18.7539C40.9703 18.7539 40.7649 18.6749 40.6135 18.5343C40.462 18.3937 40.377 18.2029 40.377 18.0041V15.7545C40.377 15.5556 40.462 15.3649 40.6135 15.2243C40.7649 15.0836 40.9703 15.0046 41.1845 15.0046C41.3987 15.0046 41.6041 15.0836 41.7555 15.2243C41.907 15.3649 41.992 15.5556 41.992 15.7545V18.0041C41.992 18.2029 41.907 18.3937 41.7555 18.5343C41.6041 18.6749 41.3987 18.7539 41.1845 18.7539Z" fill="#DCA827"/>
<path id="Vector_8" d="M38.7626 20.2537C38.5892 20.2539 38.4204 20.2022 38.281 20.1064C38.1417 20.0106 38.0393 19.8757 37.9889 19.7216C37.9385 19.5675 37.9429 19.4025 38.0014 19.2509C38.0599 19.0993 38.1694 18.9693 38.3136 18.8799L40.7363 17.3802C40.9144 17.2698 41.1326 17.2297 41.3426 17.2687C41.5527 17.3076 41.7374 17.4225 41.8563 17.5879C41.9752 17.7534 42.0184 17.9559 41.9764 18.151C41.9345 18.346 41.8108 18.5176 41.6326 18.628L39.21 20.1277C39.0776 20.2099 38.9219 20.2537 38.7626 20.2537Z" fill="#DCA827"/>
<path id="Vector_9" d="M38.7625 20.2536H37.955C37.7408 20.2536 37.5354 20.1746 37.384 20.034C37.2325 19.8934 37.1475 19.7026 37.1475 19.5038C37.1475 19.3049 37.2325 19.1142 37.384 18.9735C37.5354 18.8329 37.7408 18.7539 37.955 18.7539H38.7625C38.9767 18.7539 39.1821 18.8329 39.3336 18.9735C39.485 19.1142 39.5701 19.3049 39.5701 19.5038C39.5701 19.7026 39.485 19.8934 39.3336 20.034C39.1821 20.1746 38.9767 20.2536 38.7625 20.2536Z" fill="#DCA827"/>
<path id="Vector_10" d="M37.955 20.2536C37.7408 20.2536 37.5354 20.1746 37.384 20.034C37.2325 19.8934 37.1475 19.7027 37.1475 19.5038V15.7545C37.1475 15.5556 37.2325 15.3649 37.384 15.2243C37.5354 15.0836 37.7408 15.0046 37.955 15.0046C38.1692 15.0046 38.3746 15.0836 38.526 15.2243C38.6775 15.3649 38.7625 15.5556 38.7625 15.7545V19.5038C38.7625 19.7027 38.6775 19.8934 38.526 20.034C38.3746 20.1746 38.1692 20.2536 37.955 20.2536Z" fill="#DCA827"/>
<path id="Vector_11" d="M37.9546 16.5044C37.8486 16.5045 37.7435 16.4851 37.6455 16.4474C37.5476 16.4097 37.4586 16.3544 37.3837 16.2846L34.9611 14.0351C34.814 13.8936 34.7326 13.7042 34.7344 13.5076C34.7363 13.311 34.8212 13.1229 34.9709 12.9839C35.1206 12.8449 35.3232 12.766 35.5349 12.7643C35.7466 12.7626 35.9506 12.8382 36.1029 12.9748L38.5256 15.2243C38.6385 15.3292 38.7153 15.4628 38.7465 15.6082C38.7776 15.7537 38.7616 15.9044 38.7005 16.0414C38.6394 16.1784 38.5359 16.2955 38.4032 16.3779C38.2704 16.4603 38.1143 16.5043 37.9546 16.5044Z" fill="#DCA827"/>
<path id="Vector_12" d="M35.5324 14.2549H34.0966C33.8824 14.2549 33.677 14.1759 33.5255 14.0352C33.3741 13.8946 33.289 13.7039 33.289 13.505C33.289 13.3061 33.3741 13.1154 33.5255 12.9748C33.677 12.8341 33.8824 12.7551 34.0966 12.7551H35.5324C35.7465 12.7551 35.9519 12.8341 36.1034 12.9748C36.2548 13.1154 36.3399 13.3061 36.3399 13.505C36.3399 13.7039 36.2548 13.8946 36.1034 14.0352C35.9519 14.1759 35.7465 14.2549 35.5324 14.2549ZM15.3447 10.9457C15.3118 10.9458 15.2789 10.944 15.2462 10.9405L4.74819 9.75046C4.53552 9.7264 4.34185 9.62487 4.20979 9.46822C4.07774 9.31156 4.01811 9.11261 4.04402 8.91512C4.06994 8.71764 4.17927 8.53781 4.34798 8.41518C4.51669 8.29256 4.73094 8.23718 4.94362 8.26125L15.4416 9.45202C15.6449 9.47601 15.8308 9.57087 15.9615 9.71737C16.0923 9.86387 16.1582 10.051 16.1459 10.241C16.1335 10.4309 16.0439 10.6094 15.8952 10.7403C15.7464 10.8711 15.5496 10.9446 15.3447 10.9457Z" fill="#DCA827"/>
<path id="Vector_13" d="M4.03783 10.5055C3.87814 10.5055 3.72205 10.4615 3.58928 10.3791C3.45651 10.2967 3.35304 10.1796 3.29193 10.0426C3.23082 9.90557 3.21483 9.75483 3.24598 9.60939C3.27712 9.46395 3.354 9.33036 3.46691 9.22549L4.27444 8.47563C4.42675 8.33904 4.63073 8.26346 4.84247 8.26517C5.0542 8.26687 5.25674 8.34573 5.40647 8.48476C5.55619 8.62379 5.64112 8.81187 5.64296 9.00848C5.6448 9.20509 5.5634 9.3945 5.4163 9.53593L4.60876 10.2858C4.53387 10.3555 4.44488 10.4108 4.34691 10.4485C4.24893 10.4862 4.14389 10.5056 4.03783 10.5055Z" fill="#DCA827"/>
<path id="Vector_14" d="M4.03726 10.5055C3.91218 10.5054 3.78886 10.4782 3.6771 10.426L2.06203 9.67617C1.87217 9.58635 1.72823 9.43048 1.66159 9.24255C1.59495 9.05461 1.61101 8.84983 1.70626 8.67284C1.80151 8.49585 1.96824 8.36098 2.1701 8.29764C2.37197 8.2343 2.59262 8.24761 2.78396 8.33468L4.39904 9.08453C4.56199 9.15995 4.69272 9.28428 4.77 9.43735C4.84728 9.59043 4.86659 9.76326 4.82479 9.92781C4.78299 10.0924 4.68254 10.239 4.53973 10.3438C4.39692 10.4487 4.21933 10.5057 4.03726 10.5055Z" fill="#DCA827"/>
<path id="Vector_15" d="M2.42301 12.7551C2.20884 12.7551 2.00344 12.6761 1.85199 12.5355C1.70055 12.3949 1.61547 12.2041 1.61547 12.0053V9.00584C1.61547 8.80696 1.70055 8.61624 1.85199 8.47561C2.00344 8.33498 2.20884 8.25598 2.42301 8.25598C2.63718 8.25598 2.84258 8.33498 2.99402 8.47561C3.14547 8.61624 3.23055 8.80696 3.23055 9.00584V12.0053C3.23055 12.2041 3.14547 12.3949 2.99402 12.5355C2.84258 12.6761 2.63718 12.7551 2.42301 12.7551Z" fill="#DCA827"/>
<path id="Vector_16" d="M0.807107 15.7545C0.66951 15.7544 0.534213 15.7217 0.414056 15.6594C0.293898 15.5972 0.192865 15.5074 0.120543 15.3987C0.0482207 15.29 0.00700895 15.166 0.000817936 15.0383C-0.00537308 14.9107 0.023662 14.7837 0.085168 14.6694L1.70024 11.67C1.79598 11.492 1.96394 11.3566 2.16718 11.2936C2.37041 11.2306 2.59228 11.2452 2.78396 11.3341C2.97565 11.423 3.12145 11.5789 3.18929 11.7676C3.25714 11.9564 3.24147 12.1624 3.14574 12.3404L1.53066 15.3398C1.46352 15.4646 1.36024 15.5695 1.23242 15.6427C1.1046 15.716 0.95731 15.7547 0.807107 15.7545Z" fill="#DCA827"/>
<path id="Vector_17" d="M0.807538 22.5033C0.593366 22.5033 0.387965 22.4243 0.236522 22.2837C0.0850797 22.1431 0 21.9523 0 21.7535V15.0047C0 14.8059 0.0850797 14.6151 0.236522 14.4745C0.387965 14.3339 0.593366 14.2549 0.807538 14.2549C1.02171 14.2549 1.22711 14.3339 1.37855 14.4745C1.53 14.6151 1.61508 14.8059 1.61508 15.0047V21.7535C1.61508 21.9523 1.53 22.1431 1.37855 22.2837C1.22711 22.4243 1.02171 22.5033 0.807538 22.5033Z" fill="#DCA827"/>
<path id="Vector_18" d="M4.03853 29.252C3.88143 29.2521 3.72769 29.2097 3.59616 29.1299C3.46463 29.0501 3.36102 28.9365 3.29802 28.8028L0.0678668 21.9574C-0.0150177 21.7757 -0.0174365 21.571 0.0611349 21.3876C0.139706 21.2043 0.292935 21.0571 0.487598 20.978C0.682262 20.8988 0.902671 20.8942 1.10104 20.9649C1.2994 21.0357 1.45974 21.1762 1.54728 21.356L4.77743 28.2014C4.8633 28.3836 4.86772 28.59 4.78973 28.7752C4.71174 28.9604 4.55772 29.1092 4.36155 29.189C4.25977 29.2306 4.14975 29.2521 4.03853 29.252Z" fill="#DCA827"/>
<path id="Vector_19" d="M12.921 32.2513C12.8269 32.2513 12.7334 32.2361 12.6449 32.2063L3.76193 29.2069C3.56061 29.1389 3.39663 28.9994 3.30607 28.8191C3.21551 28.6388 3.20578 28.4325 3.27903 28.2456C3.35227 28.0586 3.5025 27.9064 3.69665 27.8223C3.8908 27.7382 4.11297 27.7291 4.31429 27.7972L13.1972 30.7966C13.3758 30.8568 13.5258 30.9735 13.6209 31.1262C13.7159 31.2789 13.75 31.4579 13.717 31.6316C13.684 31.8054 13.5861 31.9627 13.4405 32.0761C13.295 32.1894 13.111 32.2515 12.921 32.2513Z" fill="#DCA827"/>
<path id="Vector_20" d="M12.9206 32.2513C12.761 32.2513 12.6049 32.2073 12.4721 32.1249C12.3393 32.0425 12.2358 31.9254 12.1747 31.7884C12.1136 31.6514 12.0976 31.5007 12.1288 31.3552C12.1599 31.2098 12.2368 31.0762 12.3497 30.9713L13.1573 30.2215C13.3096 30.0849 13.5135 30.0093 13.7253 30.011C13.937 30.0127 14.1396 30.0916 14.2893 30.2306C14.439 30.3696 14.5239 30.5577 14.5258 30.7543C14.5276 30.9509 14.4462 31.1404 14.2991 31.2818L13.4916 32.0316C13.4167 32.1014 13.3277 32.1567 13.2297 32.1944C13.1317 32.2321 13.0267 32.2514 12.9206 32.2513Z" fill="#DCA827"/>
<path id="Vector_21" d="M15.3436 31.5015H13.7285C13.5144 31.5015 13.309 31.4225 13.1575 31.2819C13.0061 31.1413 12.921 30.9506 12.921 30.7517C12.921 30.5528 13.0061 30.3621 13.1575 30.2215C13.309 30.0808 13.5144 30.0018 13.7285 30.0018H15.3436C15.5578 30.0018 15.7632 30.0808 15.9146 30.2215C16.0661 30.3621 16.1512 30.5528 16.1512 30.7517C16.1512 30.9506 16.0661 31.1413 15.9146 31.2819C15.7632 31.4225 15.5578 31.5015 15.3436 31.5015Z" fill="#DCA827"/>
<path id="Vector_22" d="M17.7668 35.2508C17.6273 35.251 17.4901 35.2176 17.3687 35.1539C17.2473 35.0901 17.1457 34.9982 17.0739 34.8872L14.6513 31.1379C14.5944 31.0534 14.5562 30.9593 14.5389 30.861C14.5216 30.7627 14.5256 30.6622 14.5506 30.5653C14.5756 30.4684 14.6211 30.3772 14.6845 30.2968C14.7479 30.2165 14.828 30.1487 14.9199 30.0974C15.0119 30.0461 15.1139 30.0123 15.2201 29.998C15.3262 29.9837 15.4344 29.9892 15.5382 30.0142C15.6421 30.0391 15.7395 30.0831 15.8249 30.1434C15.9103 30.2037 15.9818 30.2792 16.0354 30.3655L18.458 34.1148C18.5316 34.2285 18.5714 34.3583 18.5733 34.491C18.5752 34.6236 18.5392 34.7544 18.4689 34.8699C18.3986 34.9854 18.2966 35.0815 18.1733 35.1484C18.0499 35.2153 17.9097 35.2507 17.7668 35.2508Z" fill="#DCA827"/>
<path id="Vector_23" d="M18.5741 35.2508H17.7665C17.5524 35.2508 17.3469 35.1718 17.1955 35.0312C17.0441 34.8906 16.959 34.6998 16.959 34.501C16.959 34.3021 17.0441 34.1114 17.1955 33.9707C17.3469 33.8301 17.5524 33.7511 17.7665 33.7511H18.5741C18.7882 33.7511 18.9936 33.8301 19.1451 33.9707C19.2965 34.1114 19.3816 34.3021 19.3816 34.501C19.3816 34.6998 19.2965 34.8906 19.1451 35.0312C18.9936 35.1718 18.7882 35.2508 18.5741 35.2508Z" fill="#DCA827"/>
<path id="Vector_24" d="M18.5738 35.2507C18.4141 35.2507 18.258 35.2067 18.1252 35.1243C17.9925 35.0419 17.889 34.9248 17.8279 34.7878C17.7668 34.6508 17.7508 34.5001 17.7819 34.3546C17.8131 34.2092 17.89 34.0756 18.0029 33.9707L18.8104 33.2209C18.9627 33.0843 19.1667 33.0087 19.3784 33.0104C19.5902 33.0121 19.7927 33.091 19.9424 33.23C20.0922 33.369 20.1771 33.5571 20.1789 33.7537C20.1808 33.9503 20.0994 34.1397 19.9523 34.2812L19.1447 35.031C19.0698 35.1008 18.9808 35.1561 18.8829 35.1938C18.7849 35.2315 18.6799 35.2508 18.5738 35.2507Z" fill="#DCA827"/>
<path id="Vector_25" d="M20.9968 34.5009H19.3818C19.1676 34.5009 18.9622 34.4219 18.8107 34.2813C18.6593 34.1407 18.5742 33.95 18.5742 33.7511C18.5742 33.5522 18.6593 33.3615 18.8107 33.2208C18.9622 33.0802 19.1676 33.0012 19.3818 33.0012H20.9968C21.211 33.0012 21.4164 33.0802 21.5678 33.2208C21.7193 33.3615 21.8044 33.5522 21.8044 33.7511C21.8044 33.95 21.7193 34.1407 21.5678 34.2813C21.4164 34.4219 21.211 34.5009 20.9968 34.5009Z" fill="#DCA827"/>
<path id="Vector_26" d="M23.4197 39C23.2695 39.0002 23.1223 38.9615 22.9944 38.8883C22.8666 38.815 22.7633 38.7101 22.6962 38.5854L20.2736 34.0862C20.2262 33.9981 20.1979 33.9021 20.1905 33.8039C20.183 33.7056 20.1964 33.6069 20.23 33.5135C20.2636 33.42 20.3167 33.3337 20.3862 33.2593C20.4558 33.1849 20.5404 33.1239 20.6354 33.0799C20.7303 33.0359 20.8336 33.0097 20.9394 33.0027C21.0452 32.9958 21.1515 33.0083 21.2521 33.0395C21.3528 33.0706 21.4458 33.1199 21.5259 33.1845C21.606 33.2491 21.6717 33.3277 21.7191 33.4158L24.1417 37.915C24.2032 38.0293 24.2323 38.1564 24.226 38.2841C24.2198 38.4118 24.1785 38.5359 24.1061 38.6446C24.0337 38.7533 23.9325 38.8431 23.8123 38.9053C23.692 38.9675 23.5574 39.0001 23.4197 39Z" fill="#DCA827"/>
<path id="Vector_27" d="M25.0341 39H23.419C23.2048 39 22.9994 38.921 22.848 38.7804C22.6965 38.6398 22.6115 38.4491 22.6115 38.2502C22.6115 38.0513 22.6965 37.8606 22.848 37.72C22.9994 37.5793 23.2048 37.5003 23.419 37.5003H25.0341C25.2483 37.5003 25.4537 37.5793 25.6051 37.72C25.7565 37.8606 25.8416 38.0513 25.8416 38.2502C25.8416 38.4491 25.7565 38.6398 25.6051 38.7804C25.4537 38.921 25.2483 39 25.0341 39ZM25.0349 36.7505C24.8528 36.7508 24.6758 36.6939 24.5329 36.5891C24.3899 36.4843 24.2894 36.3377 24.2474 36.1731C24.2055 36.0085 24.2248 35.8356 24.3021 35.6825C24.3793 35.5293 24.5101 35.4049 24.6731 35.3295L27.9033 33.8298C28.0949 33.7409 28.3168 33.7263 28.52 33.7893C28.6207 33.8205 28.7137 33.8698 28.7938 33.9344C28.8739 33.999 28.9396 34.0776 28.987 34.1657C29.0344 34.2538 29.0626 34.3498 29.0701 34.4481C29.0776 34.5463 29.0641 34.645 29.0305 34.7384C28.9969 34.8319 28.9439 34.9183 28.8743 34.9927C28.8048 35.0671 28.7201 35.128 28.6252 35.172L25.395 36.6717C25.2832 36.7235 25.1599 36.7504 25.0349 36.7505Z" fill="#DCA827"/>
<path id="Vector_28" d="M33.1095 35.2508H28.2642C28.0501 35.2508 27.8446 35.1718 27.6932 35.0312C27.5418 34.8906 27.4567 34.6998 27.4567 34.501C27.4567 34.3021 27.5418 34.1114 27.6932 33.9707C27.8446 33.8301 28.0501 33.7511 28.2642 33.7511H33.1095C33.3236 33.7511 33.529 33.8301 33.6805 33.9707C33.8319 34.1114 33.917 34.3021 33.917 34.501C33.917 34.6998 33.8319 34.8906 33.6805 35.0312C33.529 35.1718 33.3236 35.2508 33.1095 35.2508ZM25.0341 39.0001C24.8199 39.0001 24.6145 38.9211 24.4631 38.7805C24.3116 38.6398 24.2265 38.4491 24.2265 38.2502V36.0007C24.2265 35.8018 24.3116 35.6111 24.4631 35.4704C24.6145 35.3298 24.8199 35.2508 25.0341 35.2508C25.2482 35.2508 25.4536 35.3298 25.6051 35.4704C25.7565 35.6111 25.8416 35.8018 25.8416 36.0007V38.2502C25.8416 38.4491 25.7565 38.6398 25.6051 38.7805C25.4536 38.9211 25.2482 39.0001 25.0341 39.0001Z" fill="#DCA827"/>
<path id="Vector_29" d="M33.1086 35.2507C32.971 35.2506 32.8357 35.2179 32.7156 35.1557C32.5954 35.0934 32.4944 35.0037 32.4221 34.895C32.3497 34.7863 32.3085 34.6622 32.3023 34.5346C32.2962 34.407 32.3252 34.28 32.3867 34.1657L33.1942 32.666C33.29 32.488 33.4579 32.3526 33.6612 32.2896C33.8644 32.2266 34.0863 32.2411 34.278 32.33C34.4696 32.4189 34.6154 32.5749 34.6833 32.7636C34.7511 32.9523 34.7355 33.1583 34.6397 33.3363L33.8322 34.836C33.7651 34.9608 33.6618 35.0657 33.5339 35.139C33.4061 35.2122 33.2588 35.2509 33.1086 35.2507Z" fill="#DCA827"/>
<path id="Vector_30" d="M39.5698 33.7511H33.917C33.7028 33.7511 33.4974 33.6721 33.346 33.5314C33.1945 33.3908 33.1095 33.2001 33.1095 33.0012C33.1095 32.8023 33.1945 32.6116 33.346 32.471C33.4974 32.3303 33.7028 32.2513 33.917 32.2513H39.5698C39.7839 32.2513 39.9893 32.3303 40.1408 32.471C40.2922 32.6116 40.3773 32.8023 40.3773 33.0012C40.3773 33.2001 40.2922 33.3908 40.1408 33.5314C39.9893 33.6721 39.7839 33.7511 39.5698 33.7511Z" fill="#DCA827"/>
<path id="Vector_31" d="M41.1851 38.2501C41.0157 38.25 40.8506 38.2004 40.7132 38.1084C40.5758 38.0163 40.4731 37.8865 40.4195 37.7372L38.8045 33.2381C38.7667 33.1438 38.7498 33.0434 38.7547 32.9429C38.7596 32.8424 38.7863 32.7439 38.833 32.6532C38.8798 32.5624 38.9458 32.4814 39.027 32.4148C39.1082 32.3482 39.203 32.2975 39.3057 32.2656C39.4085 32.2338 39.5171 32.2215 39.6251 32.2294C39.733 32.2373 39.8382 32.2653 39.9343 32.3118C40.0304 32.3582 40.1154 32.4221 40.1844 32.4997C40.2533 32.5773 40.3047 32.667 40.3356 32.7634L41.9506 37.2626C41.9912 37.3753 42.0024 37.4953 41.9831 37.6128C41.9639 37.7303 41.9149 37.8419 41.8402 37.9383C41.7654 38.0348 41.667 38.1134 41.5531 38.1676C41.4392 38.2218 41.3131 38.2501 41.1851 38.2501Z" fill="#DCA827"/>
<path id="Vector_32" d="M44.4146 38.2502H41.1845C40.9703 38.2502 40.7649 38.1712 40.6135 38.0306C40.462 37.8899 40.377 37.6992 40.377 37.5003C40.377 37.3015 40.462 37.1107 40.6135 36.9701C40.7649 36.8295 40.9703 36.7505 41.1845 36.7505H44.4146C44.6288 36.7505 44.8342 36.8295 44.9857 36.9701C45.1371 37.1107 45.2222 37.3015 45.2222 37.5003C45.2222 37.6992 45.1371 37.8899 44.9857 38.0306C44.8342 38.1712 44.6288 38.2502 44.4146 38.2502Z" fill="#DCA827"/>
<path id="Vector_33" d="M44.4154 38.2501C44.2509 38.2502 44.0903 38.2037 43.955 38.1167C43.8198 38.0297 43.7164 37.9065 43.6587 37.7635L41.2361 31.7646C41.1988 31.6724 41.1815 31.5743 41.185 31.4758C41.1886 31.3774 41.213 31.2806 41.2569 31.1909C41.3007 31.1012 41.3632 31.0204 41.4407 30.9531C41.5182 30.8859 41.6092 30.8334 41.7085 30.7988C41.8078 30.7642 41.9135 30.7481 42.0195 30.7514C42.1255 30.7547 42.2298 30.7774 42.3264 30.8181C42.423 30.8589 42.51 30.9169 42.5824 30.9888C42.6549 31.0608 42.7113 31.1453 42.7486 31.2375L45.1712 37.2363C45.2172 37.3498 45.2328 37.4719 45.2168 37.5922C45.2008 37.7125 45.1536 37.8274 45.0793 37.9271C45.005 38.0268 44.9058 38.1082 44.7901 38.1645C44.6745 38.2208 44.5459 38.2501 44.4154 38.2501Z" fill="#DCA827"/>
<path id="Vector_34" d="M41.9919 30.7516C41.8322 30.7516 41.6762 30.7076 41.5434 30.6252C41.4106 30.5428 41.3071 30.4257 41.246 30.2887C41.1849 30.1517 41.1689 30.001 41.2001 29.8555C41.2312 29.7101 41.3081 29.5765 41.421 29.4716L45.4587 25.7223C45.611 25.5857 45.815 25.5102 46.0267 25.5119C46.2385 25.5136 46.441 25.5924 46.5907 25.7315C46.7404 25.8705 46.8254 26.0586 46.8272 26.2552C46.8291 26.4518 46.7477 26.6412 46.6006 26.7826L42.5629 30.5319C42.488 30.6017 42.399 30.657 42.301 30.6947C42.203 30.7324 42.098 30.7517 41.9919 30.7516Z" fill="#DCA827"/>
<path id="Vector_35" d="M41.9921 32.2513C41.7779 32.2513 41.5725 32.1723 41.4211 32.0316C41.2696 31.891 41.1846 31.7003 41.1846 31.5014V30.0017C41.1846 29.8028 41.2696 29.6121 41.4211 29.4715C41.5725 29.3308 41.7779 29.2518 41.9921 29.2518C42.2063 29.2518 42.4117 29.3308 42.5631 29.4715C42.7146 29.6121 42.7996 29.8028 42.7996 30.0017V31.5014C42.7996 31.7003 42.7146 31.891 42.5631 32.0316C42.4117 32.1723 42.2063 32.2513 41.9921 32.2513ZM46.0306 27.0023C46.0007 27.0022 45.9707 27.0007 45.941 26.9978C45.7282 26.9757 45.5335 26.8762 45.3996 26.7209C45.2658 26.5657 45.2038 26.3676 45.2271 26.1699L46.0346 19.4212C46.0582 19.2235 46.1654 19.0426 46.3326 18.9183C46.4153 18.8568 46.5104 18.811 46.6122 18.7835C46.7141 18.7561 46.8208 18.7475 46.9262 18.7583C47.0316 18.7692 47.1337 18.7992 47.2266 18.8466C47.3195 18.8941 47.4015 18.9581 47.4677 19.035C47.534 19.1118 47.5834 19.2001 47.6129 19.2947C47.6425 19.3892 47.6517 19.4883 47.64 19.5862L46.8325 26.3349C46.8106 26.5182 46.7168 26.6877 46.5688 26.8108C46.4209 26.9339 46.2293 27.0021 46.0306 27.0023Z" fill="#DCA827"/>
<path id="Vector_36" d="M46.8371 18.7539C46.6402 18.7535 46.4502 18.6864 46.3029 18.565C46.1556 18.4437 46.0611 18.2766 46.0372 18.0951C46.0133 17.9136 46.0616 17.7303 46.1731 17.5796C46.2846 17.4289 46.4515 17.3211 46.6425 17.2767L49.8726 16.5268C50.0784 16.4838 50.2942 16.5173 50.4737 16.6201C50.6533 16.7229 50.7824 16.8868 50.8334 17.0769C50.8845 17.2669 50.8535 17.468 50.7469 17.637C50.6404 17.8061 50.4669 17.9298 50.2635 17.9816L47.0333 18.7314C46.9692 18.7464 46.9033 18.754 46.8371 18.7539Z" fill="#DCA827"/>
<path id="Vector_37" d="M46.8376 20.2537C46.6234 20.2537 46.418 20.1747 46.2666 20.0341C46.1151 19.8935 46.0301 19.7028 46.0301 19.5039V18.0042C46.0301 17.8053 46.1151 17.6146 46.2666 17.4739C46.418 17.3333 46.6234 17.2543 46.8376 17.2543C47.0518 17.2543 47.2572 17.3333 47.4086 17.4739C47.5601 17.6146 47.6451 17.8053 47.6451 18.0042V19.5039C47.6451 19.7028 47.5601 19.8935 47.4086 20.0341C47.2572 20.1747 47.0518 20.2537 46.8376 20.2537ZM50.0678 18.0042C49.8536 18.0042 49.6482 17.9252 49.4967 17.7845C49.3453 17.6439 49.2602 17.4532 49.2602 17.2543V15.0047C49.2602 14.8059 49.3453 14.6151 49.4967 14.4745C49.6482 14.3339 49.8536 14.2549 50.0678 14.2549C50.2819 14.2549 50.4873 14.3339 50.6388 14.4745C50.7902 14.6151 50.8753 14.8059 50.8753 15.0047V17.2543C50.8753 17.4532 50.7902 17.6439 50.6388 17.7845C50.4873 17.9252 50.2819 18.0042 50.0678 18.0042Z" fill="#DCA827"/>
<path id="Vector_38" d="M50.0678 15.7545C49.9398 15.7544 49.8136 15.7261 49.6998 15.6719C49.5859 15.6177 49.4875 15.5392 49.4127 15.4427C49.3379 15.3463 49.2889 15.2347 49.2697 15.1172C49.2505 14.9997 49.2616 14.8796 49.3022 14.7669L50.1098 12.5174C50.1406 12.4209 50.192 12.3313 50.261 12.2537C50.3299 12.1761 50.4149 12.1122 50.511 12.0657C50.6071 12.0193 50.7123 11.9912 50.8203 11.9833C50.9283 11.9754 51.0369 11.9877 51.1396 12.0196C51.2424 12.0514 51.3372 12.1022 51.4184 12.1687C51.4996 12.2353 51.5655 12.3164 51.6123 12.4071C51.659 12.4978 51.6857 12.5964 51.6906 12.6969C51.6955 12.7974 51.6786 12.8977 51.6409 12.992L50.8333 15.2416C50.7798 15.3908 50.677 15.5207 50.5397 15.6127C50.4023 15.7048 50.2372 15.7544 50.0678 15.7545ZM25.0341 26.245C24.8453 26.2451 24.6624 26.1838 24.5173 26.0718C24.1086 25.7561 14.5361 18.25 14.5361 9.74814C14.5361 7.16277 15.6421 4.6833 17.6109 2.85516C19.5796 1.02703 22.2498 0 25.0341 0C27.8183 0 30.4885 1.02703 32.4573 2.85516C34.426 4.6833 35.5321 7.16277 35.5321 9.74814C35.5321 18.25 25.9587 25.7561 25.5509 26.0718C25.4057 26.1838 25.2229 26.2451 25.0341 26.245ZM25.0341 1.49971C22.679 1.5021 20.4211 2.37189 18.7557 3.91825C17.0904 5.46462 16.1537 7.56125 16.1512 9.74814C16.1512 16.4766 23.0637 22.8226 25.0341 24.4933C27.0029 22.8211 33.917 16.4676 33.917 9.74814C33.9144 7.56125 32.9777 5.46462 31.3124 3.91825C29.6471 2.37189 27.3892 1.5021 25.0341 1.49971Z" fill="#DCA827"/>
<path id="Vector_39" d="M25.0336 14.9971C23.9156 14.9971 22.8227 14.6893 21.8931 14.1125C20.9635 13.5358 20.239 12.716 19.8112 11.7569C19.3833 10.7977 19.2714 9.74232 19.4895 8.72412C19.7076 7.70591 20.246 6.77063 21.0365 6.03654C21.8271 5.30246 22.8343 4.80254 23.9308 4.60001C25.0274 4.39747 26.1639 4.50142 27.1968 4.8987C28.2298 5.29599 29.1126 5.96877 29.7337 6.83196C30.3549 7.69515 30.6864 8.70999 30.6864 9.74815C30.6847 11.1398 30.0886 12.474 29.0289 13.458C27.9691 14.442 26.5323 14.9956 25.0336 14.9971ZM25.0336 5.99886C24.235 5.99886 23.4544 6.21875 22.7904 6.63073C22.1264 7.04271 21.6089 7.62826 21.3033 8.31336C20.9977 8.99845 20.9177 9.75231 21.0735 10.4796C21.2293 11.2069 21.6139 11.8749 22.1786 12.3993C22.7432 12.9236 23.4627 13.2807 24.2459 13.4254C25.0292 13.5701 25.841 13.4958 26.5788 13.212C27.3166 12.9283 27.9472 12.4477 28.3908 11.8311C28.8345 11.2146 29.0713 10.4897 29.0713 9.74815C29.07 8.75414 28.6442 7.80119 27.8873 7.09832C27.1304 6.39545 26.1041 6.00005 25.0336 5.99886Z" fill="#DCA827"/>
</g>
</svg>
