<svg width="122" height="27" viewBox="0 0 122 27" fill="none" xmlns="http://www.w3.org/2000/svg">
<g id="Group 1707478304">
<g id="Group 33827">
<path id="Vector" d="M69.8465 21.3239C70.4144 21.9692 70.9824 22.6164 71.5503 23.2654C71.5882 23.3107 71.6639 23.356 71.6324 23.4239C71.6008 23.5031 71.4998 23.4748 71.4304 23.4748C69.3479 23.4975 67.2717 23.5088 65.1892 23.5315C65.0062 23.5371 64.9116 23.4465 64.8106 23.3333C63.8935 22.2843 62.9742 21.2352 62.0529 20.1862C60.6645 18.6069 59.2825 17.0276 57.8879 15.4541C57.7427 15.2842 57.7554 15.188 57.9194 15.0465C58.5126 14.5258 59.0932 13.988 59.6738 13.4559C59.7747 13.3597 59.882 13.3144 60.0335 13.3144C60.9611 13.3201 61.8888 13.3144 62.8165 13.3201C62.9174 13.3201 63.0436 13.2691 63.0058 13.4673C62.9868 13.5578 63.132 13.6767 63.2203 13.7729C65.2523 16.0899 67.2865 18.4069 69.3227 20.7239C69.5057 20.9163 69.6571 21.1314 69.8465 21.3239Z" fill="#050505"/>
<path id="Vector_2" d="M47.5578 4.21295C47.2991 3.92993 47.0467 3.64691 46.7942 3.36389C46.7564 3.31861 46.6933 3.27333 46.7185 3.22238C46.7627 3.1488 46.8573 3.18276 46.9331 3.18276C48.4476 3.16767 49.9622 3.15446 51.4767 3.14314C52.032 3.13748 52.5874 3.14314 53.1364 3.13182C53.2941 3.12616 53.3951 3.17144 53.4898 3.27899C54.571 4.5205 55.6543 5.76013 56.7397 6.99787C57.9703 8.40165 59.2072 9.79977 60.444 11.1979C60.5766 11.3507 60.5829 11.4413 60.4251 11.5828C59.8193 12.1262 59.2261 12.6809 58.6266 13.23C58.5572 13.2922 58.4941 13.3375 58.3868 13.3375C57.3266 13.3319 56.2727 13.3319 55.2126 13.3262C55.2883 13.1281 55.2189 12.9809 55.08 12.8111C54.1966 11.7526 53.2941 10.7111 52.3602 9.69788C51.9815 9.28467 51.6471 8.84882 51.2495 8.4526C50.6269 7.73938 50.0042 7.02429 49.3816 6.3073C49.3374 6.23938 49.2869 6.17711 49.2175 6.12617C48.8936 5.75258 48.5675 5.37711 48.2394 4.99975C48.1952 4.93749 48.1384 4.87522 48.0816 4.81862C47.9596 4.67899 47.8397 4.53937 47.7219 4.39975C47.6777 4.33182 47.6209 4.26956 47.5578 4.21295Z" fill="#DCA827"/>
<path id="Vector_3" d="M55.2317 13.3262H58.5321L44.043 26.7243L55.2317 13.3262Z" fill="#DCA827"/>
<path id="Vector_4" d="M59.9452 13.3261L62.8796 13.3374L73.9547 0.607178L59.9452 13.3261Z" fill="#050505"/>
</g>
<path id="Line 3" d="M84 13.7183H122" stroke="url(#paint0_linear_1_102)"/>
<path id="Line 4" d="M38 13.7183H0" stroke="url(#paint1_linear_1_102)"/>
</g>
<defs>
<linearGradient id="paint0_linear_1_102" x1="84.0435" y1="14.2183" x2="121.543" y2="14.2183" gradientUnits="userSpaceOnUse">
<stop/>
<stop offset="1" stop-opacity="0"/>
</linearGradient>
<linearGradient id="paint1_linear_1_102" x1="37.9565" y1="14.2183" x2="0.456543" y2="14.2183" gradientUnits="userSpaceOnUse">
<stop/>
<stop offset="1" stop-opacity="0"/>
</linearGradient>
</defs>
</svg>
