<svg width="47" height="44" viewBox="0 0 47 44" fill="none" xmlns="http://www.w3.org/2000/svg">
<g id="Group">
<path id="Vector" d="M46.9352 26.2226C46.8709 25.5356 46.7144 24.8627 46.563 24.2119C45.7463 21.2659 46.6024 20.5256 46.9352 17.7618C47.2512 14.6209 45.8595 11.4757 43.2637 9.46369C42.6992 9.02049 42.0803 8.64824 41.4817 8.28819C40.7606 7.85452 40.0793 7.44482 39.5544 6.95335C39.0294 6.46188 38.5919 5.82423 38.1286 5.14912C36.0679 1.75994 32.2091 -0.333567 28.0088 0.0437532C27.2748 0.103963 26.5559 0.250493 25.8607 0.392214C23.9522 0.822013 23.0264 0.821669 21.1187 0.392214C20.4236 0.250579 19.7047 0.104049 18.9707 0.0437532C17.2594 -0.0965929 15.662 0.131878 14.0874 0.742478C11.8381 1.57356 10.0697 3.21872 8.85091 5.14921C8.38767 5.82431 7.95011 6.46197 7.42512 6.95335C6.39854 7.89918 4.86081 8.54869 3.71587 9.46369C1.12 11.4755 -0.271657 14.6208 0.0442365 17.7618C0.108553 18.4488 0.265078 19.1217 0.416465 19.7725C0.875579 21.5592 0.875304 22.4259 0.416465 24.2118C0.265169 24.8626 0.108645 25.5356 0.0442365 26.2227C-0.105774 27.8246 0.13828 29.32 0.790527 30.7942C1.44287 32.2683 2.39972 33.4873 3.71578 34.5208C4.28022 34.964 4.89916 35.3362 5.49774 35.6963C6.21889 36.13 6.90013 36.5397 7.42503 37.0311C7.95002 37.5226 8.38757 38.1603 8.85091 38.8353C9.23543 39.3956 9.63307 39.9751 10.1066 40.5035C12.2415 42.9303 15.646 44.242 18.9707 43.9408C19.7046 43.8806 20.4235 43.7341 21.1187 43.5924C23.0272 43.1626 23.953 43.1628 25.8607 43.5924C26.5559 43.734 27.2748 43.8805 28.0088 43.9408C29.7197 44.0813 31.3174 43.8527 32.892 43.2421C34.4667 42.6315 35.7689 41.7357 36.8729 40.5036C37.3464 39.9752 37.744 39.3957 38.1287 38.8353C38.5919 38.1602 39.0294 37.5225 39.5543 37.0311C40.581 36.0854 42.1188 35.4359 43.2637 34.5209C45.8594 32.5089 47.251 29.3637 46.9352 26.2226ZM44.4935 30.1368C43.9569 31.3495 43.1688 32.3531 42.0843 33.2047C41.6092 33.5778 41.0654 33.9048 40.4896 34.251C39.7186 34.7147 38.9213 35.1942 38.2566 35.8164C37.1339 36.8591 36.446 38.2945 35.4668 39.3995C34.557 40.4148 33.485 41.1525 32.1897 41.6549C30.2851 42.4218 28.2631 42.3935 26.251 41.9137C25.3556 41.7312 24.4295 41.5425 23.4896 41.5425C22.5498 41.5425 21.6237 41.7312 20.7283 41.9138C20.0597 42.05 19.4282 42.1788 18.8105 42.2294C17.4002 42.3452 16.085 42.1572 14.7896 41.6549C12.8636 40.9364 11.4552 39.5779 10.3949 37.9067C9.89952 37.1849 9.38728 36.4385 8.72274 35.8163C7.6088 34.7652 6.07567 34.1212 4.89513 33.2046C3.81065 32.353 3.02252 31.3494 2.48588 30.1367C1.66664 28.3536 1.69701 26.4609 2.20943 24.5773C2.4044 23.739 2.60598 22.8721 2.60598 21.9922C2.60598 21.1123 2.40431 20.2454 2.20934 19.4071C2.06383 18.7812 1.9263 18.1901 1.87216 17.6118C1.74858 16.2915 1.94932 15.0603 2.48588 13.8476C3.02252 12.6349 3.81056 11.6314 4.89513 10.7797C5.37021 10.4066 5.91401 10.0796 6.48973 9.73339C7.2608 9.26966 8.0581 8.79022 8.72274 8.16802C9.38737 7.54583 9.89952 6.79944 10.3949 6.07761C10.7647 5.53872 11.114 5.02965 11.5126 4.5849C12.4223 3.56958 13.4943 2.83187 14.7897 2.32949C16.085 1.8272 17.4002 1.63918 18.8105 1.75505C19.4283 1.80572 20.0598 1.93439 20.7283 2.0707C21.6238 2.25322 22.5499 2.44192 23.4897 2.44192C24.4296 2.44192 25.3556 2.25322 26.251 2.0707C26.9196 1.93447 27.5511 1.80572 28.1689 1.75505C29.5793 1.63944 30.8944 1.82728 32.1897 2.32949C33.4852 2.83187 34.5571 3.56958 35.4668 4.5849C35.8654 5.02965 36.2147 5.53872 36.5845 6.07761C37.0799 6.79944 37.592 7.54583 38.2566 8.16802C39.3706 9.21916 40.9037 9.86309 42.0843 10.7797C43.1688 11.6314 43.9569 12.635 44.4935 13.8476C45.3127 15.6307 45.2824 17.5234 44.7699 19.4071C44.575 20.2453 44.3734 21.1122 44.3734 21.9921C44.3734 22.872 44.5751 23.7389 44.77 24.5773C44.9156 25.2032 45.0531 25.7943 45.1072 26.3726C45.2308 27.6929 45.0301 28.9241 44.4935 30.1368Z" fill="#DCA827"/>
<path id="Vector_2" d="M42.3582 14.6754C41.5874 12.9331 40.3419 12.1902 39.0233 11.4036C37.1864 10.3876 35.8843 9.1679 34.8 7.44991C32.9574 4.37706 30.0946 3.27018 26.4756 4.22194C21.306 5.53917 19.4964 2.8908 15.6734 4.32785C14.1517 4.91792 13.3429 5.82046 12.6954 6.70789C12.4096 7.09964 12.5171 7.63406 12.9356 7.90152C13.354 8.16899 13.9248 8.06832 14.2106 7.67666C14.7899 6.88259 15.3541 6.3109 16.3755 5.91486C17.7022 5.40046 18.7104 5.6096 20.1059 5.89897C22.3803 6.44945 24.601 6.44867 26.8725 5.89897C28.2678 5.60943 29.2762 5.40029 30.6027 5.91477C31.9293 6.42918 32.4843 7.24445 33.2523 8.37289C33.7793 9.14711 34.3766 10.0246 35.3247 10.912C36.2727 11.7995 37.21 12.3587 38.0371 12.852C39.2424 13.5711 40.1133 14.0906 40.6627 15.3326C41.2122 16.5745 40.9889 17.5183 40.6797 18.8246C40.092 20.9486 40.0928 23.0377 40.6797 25.1592C41.4911 27.9546 40.7203 29.6931 38.0371 31.1318C37.21 31.6252 36.2727 32.1843 35.3248 33.0717C34.3767 33.9593 33.7794 34.8367 33.2524 35.6109C32.4843 36.7394 31.9294 37.5546 30.6028 38.0691C29.2762 38.5834 28.2679 38.3744 26.8725 38.0849C24.6037 37.5347 22.372 37.5354 20.1059 38.0849C18.7106 38.3742 17.7023 38.5835 16.3756 38.069C15.049 37.5545 14.494 36.7393 13.726 35.6109C13.199 34.8366 12.6017 33.9592 11.6537 33.0717C10.7057 32.1841 9.76838 31.625 8.94135 31.1317C6.25703 29.693 5.48762 27.9525 6.29869 25.1591C6.88634 23.0352 6.88561 20.946 6.29869 18.8246C5.61809 16.539 6.01215 14.6259 8.19799 13.3055C8.61646 13.0381 8.72399 12.5036 8.43819 12.1119C8.15239 11.7202 7.58162 11.6195 7.16315 11.887C6.21501 12.4933 5.25063 13.2506 4.6204 14.6751C3.38711 17.5071 4.94382 19.2446 4.91639 21.9919C4.94391 24.7388 3.3872 26.4769 4.6204 29.3086C5.39119 31.0509 6.63669 31.7939 7.95532 32.5805C8.73941 33.0482 9.55029 33.532 10.3562 34.2864C12.4504 36.2105 12.6627 38.4702 15.6735 39.6561C16.5211 39.9848 17.2817 40.1017 18.003 40.1017C18.8654 40.1017 19.6717 39.9344 20.5031 39.762C25.6725 38.4448 27.4824 41.093 31.3052 39.6561C34.3162 38.47 34.5281 36.2108 36.6226 34.2864C37.4286 33.5319 38.2395 33.0482 39.0236 32.5805C40.3422 31.7939 41.5876 31.0508 42.3585 29.3086C43.1293 27.5664 42.8099 26.2165 42.4716 24.7875C41.9403 22.8531 41.9407 21.129 42.4716 19.1962C42.8097 17.7675 43.1292 16.4177 42.3582 14.6754Z" fill="#DCA827"/>
<path id="Vector_3" d="M23.4897 35.7349C31.5842 35.7349 38.1697 29.57 38.1697 21.9923C37.4316 3.786 9.5449 3.79098 8.8098 21.9925C8.8098 29.57 15.3952 35.7349 23.4897 35.7349ZM23.4897 9.9675C30.5724 9.9675 36.3347 15.3618 36.3347 21.9923C35.6889 37.9229 11.288 37.9185 10.6448 21.9921C10.6448 15.3618 16.407 9.9675 23.4897 9.9675ZM11.006 11.164C12.2221 11.1217 12.2211 9.48797 11.006 9.44614H11.0054C9.78932 9.48857 9.79097 11.1223 11.006 11.164Z" fill="#DCA827"/>
<path id="Vector_4" d="M18.9024 23.7102V22.4418C18.9024 21.9674 18.4917 21.5829 17.9849 21.5829H17.0674C15.8514 21.6251 15.8523 23.2588 17.0674 23.3007V23.7101C17.0212 24.8483 15.2783 24.8474 15.2325 23.7101V20.2745C15.2408 19.3752 16.527 19.0866 16.9681 19.8882C17.023 19.9886 17.0985 20.078 17.1902 20.1511C17.282 20.2242 17.3882 20.2796 17.5029 20.3143C17.6175 20.3489 17.7384 20.3621 17.8585 20.3531C17.9786 20.344 18.0956 20.3129 18.2028 20.2615C18.654 20.0454 18.8324 19.5279 18.6016 19.1056C17.2784 16.7106 13.4191 17.5822 13.3975 20.2744V23.71C13.5363 27.1247 18.765 27.1221 18.9024 23.7102ZM21.1963 26.2869C21.703 26.2869 22.1138 25.9023 22.1138 25.428V20.9291L22.7852 21.6833C23.1308 22.0913 23.8492 22.0913 24.1948 21.6833L24.8662 20.9291V25.428C24.9114 26.5664 26.6566 26.5655 26.7012 25.428V18.5567C26.7012 18.3802 26.6431 18.208 26.5348 18.0635C26.4265 17.919 26.2733 17.8093 26.096 17.7492C25.9188 17.6891 25.726 17.6816 25.5441 17.7277C25.3621 17.7738 25.1997 17.8712 25.0789 18.0068L23.49 19.7917L21.9011 18.0068C21.7804 17.8712 21.618 17.7737 21.436 17.7276C21.254 17.6815 21.0612 17.689 20.8839 17.7491C20.7066 17.8092 20.5534 17.9189 20.4451 18.0634C20.3369 18.2079 20.2788 18.3802 20.2788 18.5567V25.428C20.2788 25.9023 20.6895 26.2869 21.1963 26.2869ZM28.9951 26.287C29.5018 26.287 29.9126 25.9024 29.9126 25.428V22.8512H30.8301C34.4775 22.7213 34.4747 17.8265 30.8301 17.6978H28.9951C28.4883 17.6978 28.0776 18.0823 28.0776 18.5567V25.428C28.0776 25.9024 28.4883 26.287 28.9951 26.287ZM29.9126 19.4156H30.8301C32.0459 19.4589 32.0449 21.0905 30.8301 21.1334H29.9126V19.4156Z" fill="#DCA827"/>
</g>
</svg>
