<svg width="34" height="35" viewBox="0 0 34 35" fill="none" xmlns="http://www.w3.org/2000/svg">
<g id="Group 33830">
<rect id="Rectangle 469" y="0.275635" width="34" height="34" fill="#DDA81B"/>
<path id="Vector" fill-rule="evenodd" clip-rule="evenodd" d="M23 18.2751L20.52 20.5691C20.124 20.9591 20.124 21.5921 20.52 21.9831C20.915 22.3731 21.557 22.3731 21.952 21.9831L25.802 18.3361C26.09 18.0531 26.247 17.6781 26.247 17.2751C26.247 16.8751 26.089 16.4971 25.803 16.2151L21.953 12.5681C21.557 12.1781 20.915 12.1781 20.519 12.5681C20.124 12.9581 20.124 13.5911 20.519 13.9821L22.999 16.2751H8C7.447 16.2751 7 16.7211 7 17.2751C7 17.8251 7.448 18.2751 8 18.2751H23Z" fill="black"/>
</g>
</svg>
