<svg width="47" height="45" viewBox="0 0 47 45" fill="none" xmlns="http://www.w3.org/2000/svg">
<g id="Vector">
<mask id="path-1-inside-1_1_461" fill="white">
<path d="M1.258 15.242L3.43827 15.5663C4.60395 11.3728 7.12367 7.67755 10.5442 4.94282C14.183 2.0341 18.8466 0.206263 23.9896 0.0164486C30.0949 -0.210274 35.7237 1.92074 39.8866 5.54654C44.0476 9.17234 46.7426 14.2929 46.9823 20.0453C47.0718 22.2062 46.8135 24.2968 46.2549 26.2653C45.8367 27.7368 45.2472 29.1603 44.4971 30.5097L44.443 30.4271C43.9025 29.6207 43.1417 28.9663 42.2403 28.5325C41.8345 28.3373 41.4057 28.1878 40.9627 28.0869C41.4243 27.1721 41.802 26.2125 42.0846 25.2151C42.5483 23.5824 42.7482 21.8932 42.6777 20.2044C42.4846 15.5654 40.3156 11.4396 36.9659 8.52117C33.6162 5.60366 29.0822 3.89006 24.1584 4.07284C20.0198 4.22575 16.2635 5.69944 13.3297 8.04488C10.6794 10.1636 8.70153 12.9932 7.71863 16.2034L9.46994 16.4635C10.0649 16.5505 10.4734 17.076 10.381 17.6366C10.3409 17.8818 10.2113 18.0945 10.0285 18.2474L5.13456 22.3539C4.68415 22.7317 3.9922 22.6939 3.59028 22.2686C3.5222 22.1974 3.46718 22.1184 3.42429 22.0366L0.150139 16.7781C-0.154801 16.2886 0.0195835 15.6585 0.539008 15.3712C0.764683 15.2464 1.01833 15.2077 1.258 15.242ZM23.0514 26.7539C22.8127 26.7372 22.6654 26.7143 22.4891 26.688L21.5025 26.5544L20.8936 26.4577C20.6959 26.4252 20.4991 26.3874 20.3042 26.347C20.0972 26.3039 19.906 26.2591 19.7344 26.216L19.5031 26.1581V22.5656L20.5812 22.6491L21.3719 22.6931L22.2028 22.7273L23.0431 22.7528L23.8609 22.7669L24.62 22.7704C24.8513 22.7704 25.0536 22.7634 25.2271 22.7484C25.4052 22.7335 25.5646 22.7106 25.7064 22.6799C25.8351 22.6535 25.9479 22.6166 26.043 22.5736C26.1251 22.5366 26.1932 22.4918 26.2463 22.4417C26.2911 22.3996 26.3256 22.3495 26.348 22.2923C26.3722 22.2264 26.3853 22.1474 26.3853 22.0568V21.8196C26.3853 21.6298 26.3209 21.4918 26.1922 21.4057C26.113 21.3529 26.0244 21.3116 25.9302 21.2853C25.8341 21.2572 25.726 21.244 25.6066 21.244H24.495C23.6567 21.244 22.9144 21.1552 22.2672 20.9786C21.6088 20.7984 21.053 20.5269 20.5998 20.1649C20.1373 19.7931 19.7913 19.3001 19.5637 18.6876C19.3409 18.091 19.2299 17.3818 19.2299 16.5593V15.9072C19.2299 15.1453 19.3539 14.4748 19.6001 13.8966C19.85 13.3087 20.2268 12.8183 20.7285 12.4282C21.0922 12.1452 21.4363 11.9141 21.8438 11.7339C22.1889 11.581 22.5749 11.4668 23.0514 11.3921V9.7989H26.5662V11.328C27.1481 11.371 27.5985 11.4475 28.1674 11.545L28.463 11.5933C28.7092 11.6346 28.9554 11.6795 29.1987 11.7269C29.4272 11.7709 29.6473 11.8174 29.8562 11.8649L30.0949 11.9194V15.5162L29.7564 15.4872C29.4207 15.4608 29.0803 15.4362 28.739 15.416C28.3679 15.3949 27.9864 15.3747 27.5976 15.3597C27.191 15.343 26.8087 15.3299 26.4552 15.322C26.1288 15.3149 25.7829 15.3114 25.4182 15.3114C24.9977 15.3114 24.1938 15.3211 23.8758 15.6207C23.6772 15.8079 23.6697 16.3923 23.7742 16.6234C23.9308 16.9732 24.4176 17.0162 24.7673 17.0162H26.1521C26.6613 17.0162 27.1332 17.0628 27.5659 17.1559C28.0042 17.2491 28.3996 17.3915 28.7511 17.5795C29.4552 17.9583 29.9867 18.4732 30.343 19.1244C30.5183 19.4443 30.6516 19.7887 30.7393 20.1561C30.827 20.5208 30.8717 20.9048 30.8717 21.3046V21.9575C30.8717 22.6017 30.8102 23.1755 30.6899 23.6782C30.5659 24.1896 30.3775 24.6264 30.1257 24.9858C29.8739 25.3461 29.568 25.6484 29.2081 25.8909C28.85 26.1343 28.4387 26.3189 27.979 26.4419L27.8615 26.4735C27.4139 26.5948 27.0884 26.6836 26.5662 26.7372V28.4613H23.0514V26.7539ZM10.313 40.8159V28.7645C16.6216 28.7645 17.694 28.4965 23.3806 31.8692H27.8494C29.872 31.9825 30.9314 33.9158 28.9647 35.1848C27.3989 36.2683 25.3315 36.2068 23.2118 36.0275C21.7496 35.959 21.6871 37.8096 23.2118 37.8158C23.7415 37.8553 24.316 37.7376 24.8177 37.7376C27.4614 37.7341 29.6398 37.2578 30.9734 35.2893L31.642 33.8174L38.2891 30.7136C41.6146 29.6819 43.9804 32.9597 41.5279 35.241C36.7132 38.5408 31.7772 41.2562 26.7275 43.4496C23.0589 45.5525 19.3912 45.4795 15.7263 43.4496L10.313 40.8159ZM0.461607 27.6063H8.5803V42.0269H0.461607V27.6063Z"/>
</mask>
<path d="M1.258 15.242L3.43827 15.5663C4.60395 11.3728 7.12367 7.67755 10.5442 4.94282C14.183 2.0341 18.8466 0.206263 23.9896 0.0164486C30.0949 -0.210274 35.7237 1.92074 39.8866 5.54654C44.0476 9.17234 46.7426 14.2929 46.9823 20.0453C47.0718 22.2062 46.8135 24.2968 46.2549 26.2653C45.8367 27.7368 45.2472 29.1603 44.4971 30.5097L44.443 30.4271C43.9025 29.6207 43.1417 28.9663 42.2403 28.5325C41.8345 28.3373 41.4057 28.1878 40.9627 28.0869C41.4243 27.1721 41.802 26.2125 42.0846 25.2151C42.5483 23.5824 42.7482 21.8932 42.6777 20.2044C42.4846 15.5654 40.3156 11.4396 36.9659 8.52117C33.6162 5.60366 29.0822 3.89006 24.1584 4.07284C20.0198 4.22575 16.2635 5.69944 13.3297 8.04488C10.6794 10.1636 8.70153 12.9932 7.71863 16.2034L9.46994 16.4635C10.0649 16.5505 10.4734 17.076 10.381 17.6366C10.3409 17.8818 10.2113 18.0945 10.0285 18.2474L5.13456 22.3539C4.68415 22.7317 3.9922 22.6939 3.59028 22.2686C3.5222 22.1974 3.46718 22.1184 3.42429 22.0366L0.150139 16.7781C-0.154801 16.2886 0.0195835 15.6585 0.539008 15.3712C0.764683 15.2464 1.01833 15.2077 1.258 15.242ZM23.0514 26.7539C22.8127 26.7372 22.6654 26.7143 22.4891 26.688L21.5025 26.5544L20.8936 26.4577C20.6959 26.4252 20.4991 26.3874 20.3042 26.347C20.0972 26.3039 19.906 26.2591 19.7344 26.216L19.5031 26.1581V22.5656L20.5812 22.6491L21.3719 22.6931L22.2028 22.7273L23.0431 22.7528L23.8609 22.7669L24.62 22.7704C24.8513 22.7704 25.0536 22.7634 25.2271 22.7484C25.4052 22.7335 25.5646 22.7106 25.7064 22.6799C25.8351 22.6535 25.9479 22.6166 26.043 22.5736C26.1251 22.5366 26.1932 22.4918 26.2463 22.4417C26.2911 22.3996 26.3256 22.3495 26.348 22.2923C26.3722 22.2264 26.3853 22.1474 26.3853 22.0568V21.8196C26.3853 21.6298 26.3209 21.4918 26.1922 21.4057C26.113 21.3529 26.0244 21.3116 25.9302 21.2853C25.8341 21.2572 25.726 21.244 25.6066 21.244H24.495C23.6567 21.244 22.9144 21.1552 22.2672 20.9786C21.6088 20.7984 21.053 20.5269 20.5998 20.1649C20.1373 19.7931 19.7913 19.3001 19.5637 18.6876C19.3409 18.091 19.2299 17.3818 19.2299 16.5593V15.9072C19.2299 15.1453 19.3539 14.4748 19.6001 13.8966C19.85 13.3087 20.2268 12.8183 20.7285 12.4282C21.0922 12.1452 21.4363 11.9141 21.8438 11.7339C22.1889 11.581 22.5749 11.4668 23.0514 11.3921V9.7989H26.5662V11.328C27.1481 11.371 27.5985 11.4475 28.1674 11.545L28.463 11.5933C28.7092 11.6346 28.9554 11.6795 29.1987 11.7269C29.4272 11.7709 29.6473 11.8174 29.8562 11.8649L30.0949 11.9194V15.5162L29.7564 15.4872C29.4207 15.4608 29.0803 15.4362 28.739 15.416C28.3679 15.3949 27.9864 15.3747 27.5976 15.3597C27.191 15.343 26.8087 15.3299 26.4552 15.322C26.1288 15.3149 25.7829 15.3114 25.4182 15.3114C24.9977 15.3114 24.1938 15.3211 23.8758 15.6207C23.6772 15.8079 23.6697 16.3923 23.7742 16.6234C23.9308 16.9732 24.4176 17.0162 24.7673 17.0162H26.1521C26.6613 17.0162 27.1332 17.0628 27.5659 17.1559C28.0042 17.2491 28.3996 17.3915 28.7511 17.5795C29.4552 17.9583 29.9867 18.4732 30.343 19.1244C30.5183 19.4443 30.6516 19.7887 30.7393 20.1561C30.827 20.5208 30.8717 20.9048 30.8717 21.3046V21.9575C30.8717 22.6017 30.8102 23.1755 30.6899 23.6782C30.5659 24.1896 30.3775 24.6264 30.1257 24.9858C29.8739 25.3461 29.568 25.6484 29.2081 25.8909C28.85 26.1343 28.4387 26.3189 27.979 26.4419L27.8615 26.4735C27.4139 26.5948 27.0884 26.6836 26.5662 26.7372V28.4613H23.0514V26.7539ZM10.313 40.8159V28.7645C16.6216 28.7645 17.694 28.4965 23.3806 31.8692H27.8494C29.872 31.9825 30.9314 33.9158 28.9647 35.1848C27.3989 36.2683 25.3315 36.2068 23.2118 36.0275C21.7496 35.959 21.6871 37.8096 23.2118 37.8158C23.7415 37.8553 24.316 37.7376 24.8177 37.7376C27.4614 37.7341 29.6398 37.2578 30.9734 35.2893L31.642 33.8174L38.2891 30.7136C41.6146 29.6819 43.9804 32.9597 41.5279 35.241C36.7132 38.5408 31.7772 41.2562 26.7275 43.4496C23.0589 45.5525 19.3912 45.4795 15.7263 43.4496L10.313 40.8159ZM0.461607 27.6063H8.5803V42.0269H0.461607V27.6063Z" stroke="#DCA827" stroke-width="3" mask="url(#path-1-inside-1_1_461)"/>
</g>
</svg>
